HIERARCHY
ROOT Hip
{
  OFFSET 0.0 0.0 0.0
  CHANNELS 6 Xposition Yposition Zposition Xrotation Yrotation Zrotation
  JOINT LowerSpine
  {
    OFFSET 0.0 0.061367 -0.03653
    CHANNELS 3 Xrotation Yrotation Zrotation
    JOINT MiddleSpine
    {
      OFFSET 0.0 0.056002 0.002633
      CHANNELS 3 Xrotation Yrotation Zrotation
      JOINT Chest
      {
        OFFSET 0.0 0.069296 -0.013882
        CHANNELS 3 Xrotation Yrotation Zrotation
        JOINT Neck
        {
          OFFSET 0.0 0.156156 -0.002923
          CHANNELS 3 Xrotation Yrotation Zrotation
          JOINT Head
          {
            OFFSET 0.0 0.088183 0.023986
            CHANNELS 3 Xrotation Yrotation Zrotation
            End Site
            {
              OFFSET 1e-06 0.123215 0.003678
            }
          }
        }
        JOINT LClavicle
        {
          OFFSET 0.014189 0.150698 0.046467
          CHANNELS 3 Xrotation Yrotation Zrotation
          JOINT LShoulder
          {
            OFFSET 0.082893 0.021616 -0.034976
            CHANNELS 3 Xrotation Yrotation Zrotation
            JOINT LForearm
            {
              OFFSET 0.195645 -0.000695 -0.001695
              CHANNELS 3 Xrotation Yrotation Zrotation
              JOINT LHand
              {
                OFFSET 0.163209 0.000474 -0.000977
                CHANNELS 3 Xrotation Yrotation Zrotation
                End Site
                {
                  OFFSET 0.0 0.006864 0.0
                }
              }
            }
          }
        }
        JOINT RClavicle
        {
          OFFSET -0.014189 0.150698 0.046467
          CHANNELS 3 Xrotation Yrotation Zrotation
          JOINT RShoulder
          {
            OFFSET -0.082908 0.021619 -0.034982
            CHANNELS 3 Xrotation Yrotation Zrotation
            JOINT RForearm
            {
              OFFSET -0.195645 -0.000695 -0.001695
              CHANNELS 3 Xrotation Yrotation Zrotation
              JOINT RHand
              {
                OFFSET -0.163209 0.000474 -0.000977
                CHANNELS 3 Xrotation Yrotation Zrotation
                End Site
                {
                  OFFSET 0.0 0.006864 0.0
                }
              }
            }
          }
        }
      }
    }
  }
  JOINT RThigh
  {
    OFFSET -0.072558 0.02774 -0.005953
    CHANNELS 3 Xrotation Yrotation Zrotation
    JOINT RShin
    {
      OFFSET -0.005253 -0.285537 0.0
      CHANNELS 3 Xrotation Yrotation Zrotation
      JOINT RFoot
      {
        OFFSET 0.0 -0.28038 0.0
        CHANNELS 3 Xrotation Yrotation Zrotation
        JOINT RToe
        {
          OFFSET 0.0 -0.030816 0.064441
          CHANNELS 3 Xrotation Yrotation Zrotation
          End Site
          {
            OFFSET 0.0 0.0 0.043231
          }
        }
      }
    }
  }
  JOINT LThigh
  {
    OFFSET 0.072557 0.027741 -0.005953
    CHANNELS 3 Xrotation Yrotation Zrotation
    JOINT LShin
    {
      OFFSET 0.005253 -0.285539 0.0
      CHANNELS 3 Xrotation Yrotation Zrotation
      JOINT LFoot
      {
        OFFSET 0.0 -0.28038 0.0
        CHANNELS 3 Xrotation Yrotation Zrotation
        JOINT LToe
        {
          OFFSET 0.0 -0.030816 0.064441
          CHANNELS 3 Xrotation Yrotation Zrotation
          End Site
          {
            OFFSET 0.0 0.0 0.043231
          }
        }
      }
    }
  }
}
MOTION
Frames: 6
Frame Time: 0.03333333333333333
-0.026369 0.545937 -0.105754 5.93102 1.067659 1.466656 2.466451 -0.08562 -0.867398 0.408668 1.447151 -0.567102 -3.976208 3.858022 -2.913919 0.132487 0.307117 0.442507 0.039194 0.04326 0.002251 -0.507505 -0.99996 -4.976374 14.480736 -26.201225 -42.652969 13.111922 -51.828278 2.630623 0.19814 0.252933 -0.212819 -1.538459 0.056688 7.827599 1.833157 43.990829 56.712807 6.000489 39.558697 -1.739589 0.320422 -0.568082 0.021199 -28.038637 0.7486 -6.344495 24.968601 -1.457349 5.579056 -2.836397 0.589078 0.022862 0.254979 0.750203 0.112664 -17.620031 8.397857 9.046205 15.974156 9.262967 -9.622543 -3.048728 -0.360756 -0.165517 0.022259 -0.106777 0.011252 
-0.016793 0.539138 -0.104644 1.224299 -0.86793 0.220665 3.011372 -0.404461 0.198252 -0.628272 1.682553 0.549629 -5.116611 5.945536 -3.455134 1.296746 0.457465 0.515713 0.089831 -0.510574 -0.068875 -1.665327 -3.580686 -4.914089 15.461551 -23.203629 -43.424656 13.499291 -52.855518 5.595269 0.206889 0.335922 -0.253455 -3.449375 1.303121 8.147249 6.200298 35.671635 55.190025 9.239782 43.398315 -3.338644 -0.314011 -0.26036 -0.055658 -21.922445 1.09642 -4.891022 22.033602 0.200459 3.270948 -1.775664 0.336106 -0.597735 -0.160256 0.481334 0.184552 -10.734076 12.263304 8.556451 11.802677 8.144215 -9.42511 -3.860281 -0.593252 0.434079 0.180475 -0.343676 -0.119381 
-0.017337 0.538991 -0.103977 0.463999 -1.013989 0.050514 3.015687 -0.48588 0.108412 -0.860931 1.466826 0.871927 -5.528626 4.92401 -1.634119 1.59875 0.443214 0.557806 0.07347 -0.457986 -0.072971 -1.967951 -3.903788 -5.576711 14.741824 -21.902517 -46.511292 12.661855 -50.087059 5.866297 0.153428 0.270397 -0.182478 -3.495342 2.139269 8.48433 7.427467 31.060493 54.759449 8.297899 49.050983 -1.116913 -0.331047 -0.149574 -0.046796 -19.805122 -2.28389 -4.424079 19.245359 -1.035848 3.225171 -1.573203 0.408083 -0.490555 -0.136031 0.336636 0.146623 -9.340927 11.414975 7.170731 9.038894 6.530864 -7.924613 -3.64151 -0.520105 0.472721 0.144739 -0.258012 -0.094946 
-0.021627 0.541456 -0.094782 -0.438984 -0.433351 0.572387 2.84234 -0.473046 0.144221 -0.684667 1.514682 0.842195 -4.364864 5.158369 -1.126167 1.663471 0.385938 0.551705 0.060386 -0.412657 -0.064292 -2.090586 -3.821741 -6.073217 14.537826 -20.536285 -47.665276 11.925972 -50.835976 5.586704 0.114639 0.216645 -0.124057 -3.393112 2.527514 8.514683 6.915079 29.36908 54.452782 6.610399 54.079304 0.737384 -0.30967 -0.099726 -0.037493 -17.638115 -2.601608 -4.441786 18.597689 -0.816321 2.858815 -1.957473 0.489563 -0.360397 -0.132012 0.252985 0.127429 -7.214579 11.800157 6.520981 7.479 6.438203 -7.265726 -3.400412 -0.503779 0.45098 0.113834 -0.192505 -0.071496 
-0.023968 0.539575 -0.094623 -0.808324 -0.183987 0.994173 2.782265 -0.462147 0.169823 -0.515964 1.58362 0.772513 -3.589311 5.473692 -1.083378 1.706211 0.370258 0.532082 0.053691 -0.381478 -0.057643 -2.126017 -3.759155 -6.333211 14.178873 -20.089926 -48.144112 11.404099 -51.171188 5.254703 0.095089 0.187311 -0.093466 -3.302464 2.637593 8.440937 5.76202 29.299282 54.66571 4.997224 56.748489 1.843533 -0.292992 -0.076928 -0.032359 -16.874838 -2.350196 -4.296452 18.514446 -0.484585 2.599469 -2.375628 0.519311 -0.303542 -0.131582 0.221935 0.121278 -6.357327 12.147937 6.45574 6.788692 6.77363 -7.055171 -3.289549 -0.439377 0.452222 0.098026 -0.16285 -0.058927 
-0.022209 0.534703 -0.101996 -0.854901 -0.274826 1.097665 2.854808 -0.480693 0.135772 -0.424496 1.611462 0.746087 -3.53159 5.648503 -1.069397 1.790428 0.389778 0.532025 0.051907 -0.357244 -0.053656 -2.121461 -3.721833 -6.375469 13.418007 -20.44504 -48.5863 10.749333 -50.070705 4.856166 0.090385 0.176483 -0.084716 -3.220283 2.545069 8.382128 4.245242 30.073692 55.354557 4.279882 55.737659 1.913378 -0.280032 -0.07466 -0.030122 -17.412706 -2.206754 -4.050569 19.038349 -0.374727 2.589895 -2.671971 0.465387 -0.313904 -0.12815 0.222265 0.121881 -6.713407 12.19229 6.624558 6.91149 7.004448 -7.159433 -3.365957 -0.331974 0.463327 0.091343 -0.151753 -0.052699 
